# xmcd CD database file
#
# Track frame offsets:
#	150
#	17364
#	35976
#	52816
#	67994
#	86534
#	102329
#	115607
#	132012
#	151440
#	165428
#
# Disc length: 2480 seconds
#
# Revision: 0
# Processed by: cddbd v1.5.2PL0 Copyright (c) Steve Scherf et al.
# Submitted via: CDex 1.51
#
DISCID=7c09ae0b
DTITLE=Wagons - Sampler
DYEAR=2008
DGENRE=Country
TTITLE0=Redwoods
TTITLE1=This Is What Death Looks Like
TTITLE2=Samson (Live)
TTITLE3=Snake Bite
TTITLE4=Summertime
TTITLE5=Love You 'Till I Die
TTITLE6=Eagle On The Hill
TTITLE7=Alone With Me
TTITLE8=Trying To Get Home
TTITLE9=Man Sold (Live)
TTITLE10=Jail, It's Hell (Live)
EXTD=YEAR: 2008
EXTT0=
EXTT1=
EXTT2=
EXTT3=
EXTT4=
EXTT5=
EXTT6=
EXTT7=
EXTT8=
EXTT9=
EXTT10=
PLAYORDER=
